<?xml version="1.0" encoding="UTF-8" standalone="no"?>
<!DOCTYPE svg PUBLIC "-//W3C//DTD SVG 1.1//EN" "http://www.w3.org/Graphics/SVG/1.1/DTD/svg11.dtd">
<svg width="100%" height="100%" viewBox="0 0 1386 500" version="1.1" xmlns="http://www.w3.org/2000/svg" xmlns:xlink="http://www.w3.org/1999/xlink" xml:space="preserve" xmlns:serif="http://www.serif.com/" style="fill-rule:evenodd;clip-rule:evenodd;stroke-linejoin:round;stroke-miterlimit:2;">
    <g>
        <g>
            <path d="M855.264,378.246l-152.847,0l-39.772,86.713l-58.04,0l176.664,-379.457l170.42,379.457l-58.965,0l-37.46,-86.713Zm-21.967,-50.64l-52.953,-121.399l-55.497,121.399l108.45,-0Z" style="fill:rgb(46,53,96);fill-rule:nonzero;"/>
            <path d="M983.831,464.959l75.151,-383.85l122.555,277.482l126.948,-277.482l67.521,383.85l-55.265,0l-34.454,-215.511l-105.675,231.929l-102.668,-232.16l-38.386,215.742l-55.727,0Z" style="fill:rgb(46,53,96);fill-rule:nonzero;"/>
            <path d="M130.93,314.342l110.531,152.153l-65.902,0l-101.975,-146.14l-9.712,-0l-0,146.14l-53.878,0l0,-357.027l63.127,-0c47.172,-0 81.241,8.864 102.206,26.592c23.124,19.732 34.686,45.785 34.686,78.158c-0,25.281 -7.246,47.017 -21.736,65.208c-14.491,18.19 -33.607,29.829 -57.347,34.916Zm-67.058,-40.928l17.111,-0c51.026,-0 76.539,-19.501 76.539,-58.503c0,-36.535 -24.819,-54.802 -74.458,-54.802l-19.192,-0l-0,113.305Z" style="fill:rgb(46,53,96);fill-rule:nonzero;"/>
        </g>
        <g id="Layer1">
            <g>
                <path d="M586.061,389.253c-3.828,3.263 -8.527,5.015 -13.326,5.133c-2.842,0.062 -5.698,-0.436 -8.413,-1.545c-3.298,-1.35 -6.066,-3.581 -8.312,-6.227c-21.986,29.536 -53.089,51.335 -89.031,60.956c20.042,-14.421 36.619,-39.282 47.733,-70.716l36.552,0c-0.14,-0.665 -0.422,-1.26 -0.496,-1.932l-1.91,-14.997l-28.877,0c5.637,-20.718 9.002,-43.694 9.639,-68.132l10.551,-0l-2.159,-16.929l-8.392,-0c-0.302,-11.339 -1.254,-22.339 -2.655,-32.951c-5.221,1.503 -10.644,2.985 -16.02,4.468c1.166,9.254 2.024,18.702 2.306,28.483l-57.715,-0l-3.324,16.929l61.032,-0c-0.697,24.528 -4.283,47.684 -10.303,68.132l-68.996,0l0,-37.412l-8.392,6.061c-2.433,1.781 -5.175,2.764 -7.99,3.367l-0,27.984l-68.996,0c-2.943,-10.016 -5.296,-20.704 -7.018,-31.863c-1.79,0.748 -3.633,1.503 -5.39,2.279c-3.512,1.544 -6.649,3.082 -9.987,4.627c1.468,8.575 3.197,16.977 5.349,24.957l-52.332,0l0,-0.014c-4.712,2.972 -9.21,5.937 -13.38,8.95c-3.291,2.396 -6.287,4.752 -9.123,7.086c32.209,62.514 95.876,105.211 169.061,105.211c68.634,0 128.755,-37.633 162.553,-93.851l-2.239,1.946Zm-297.447,-12.399l48.182,0c11.134,31.434 27.684,56.295 47.734,70.716c-39.824,-10.646 -73.809,-36.192 -95.916,-70.716Zm128.949,67.093c-26.029,-4.467 -48.732,-29.937 -63.151,-67.093l63.151,0l-0,67.093Zm16.382,-67.093l63.151,0c-14.405,37.135 -37.136,62.626 -63.151,67.093l0,-67.093Z" style="fill:rgb(46,53,96);fill-rule:nonzero;"/>
                <path d="M732.693,105.87c-26.779,-18.196 -82.771,-5.354 -144.889,19.416l-109.142,-110.15l-36.767,1.302l87.738,134.429c-36.096,17.151 -71.851,36.241 -103.202,53.884l-45.287,-35.341l-18.809,2.265l46.768,60.88l4.029,77.636l15.531,-11.201l11.242,-57.472c34.789,-8.229 73.835,-18.425 111.856,-30.284l20.464,160.744l28.368,-24.209l11.087,-157.204c62.461,-24.016 112.62,-52.741 121.013,-84.695Z" style="fill:rgb(46,53,96);fill-rule:nonzero;"/>
                <path d="M472.368,103.183l-9.036,-13.847c-12.193,-2.508 -24.721,-3.879 -37.605,-3.879c-95.601,-0 -174.832,72.863 -188.976,167.622c11.764,-9.171 23.193,-17.234 33.657,-24.251c2.48,-7.598 5.289,-15.052 8.768,-22.124l26.363,-0c9.505,-5.659 19.265,-11.312 29.534,-16.929l-46.473,-0c22.094,-34.523 56.093,-60.063 95.923,-70.716c-10.672,7.689 -20.324,18.405 -28.737,31.434c1.321,-0.437 2.635,-0.901 4.049,-1.06l18.809,-2.265c0.114,-0.007 0.248,-0 0.349,-0.007c11.375,-13.279 24.446,-22.055 38.556,-24.465l0,47.06l10.826,8.458c1.89,-1.046 3.68,-1.967 5.557,-3.013l-0,-52.505c15.907,2.722 30.566,13.389 42.874,29.681l21.222,-10.425l-25.66,-38.769Z" style="fill:rgb(46,53,96);fill-rule:nonzero;"/>
                <path d="M387.854,240.888l-29.474,-38.361c-20.022,10.605 -42.377,23.17 -65.738,38.215c-26.088,16.943 -53.478,36.505 -78.595,61.434c-12.467,12.559 -24.453,26.516 -34.172,43.348c-4.807,8.43 -8.976,17.657 -11.845,27.645c-0.771,2.445 -1.287,5.078 -1.877,7.627c-0.315,1.267 -0.462,2.597 -0.697,3.899l-0.684,4.718l-0.02,5.763l0.154,8.492c0.718,10.231 3.359,21.12 8.614,30.617c5.135,9.579 12.843,16.943 20.512,21.667c15.598,9.441 30.224,10.986 42.82,11.754c25.291,0.797 44.703,-3.463 58.284,-6.248c4.23,-0.928 7.789,-1.773 10.805,-2.5c-39.414,-2.141 -63.968,-11.907 -77.153,-19.305c-3.767,-1.974 -7.26,-4.191 -10.243,-6.768c-1.374,-1.101 -2.125,-1.821 -2.125,-1.821l0.255,-0.021c-0.811,-0.797 -1.756,-1.545 -2.44,-2.397c-5.939,-7.335 -6.093,-13.999 -3.988,-23.558c0.362,-0.984 0.677,-1.877 0.938,-2.805l1.602,-5.535l0.054,-0.159c0.147,-0.866 -0.148,0.976 -0.107,0.734l0.087,-0.194l0.147,-0.436l0.295,-0.838c0.221,-0.548 0.342,-1.102 0.617,-1.677c0.529,-1.129 0.891,-2.258 1.528,-3.401c2.226,-4.592 5.269,-9.268 9.036,-13.909c7.555,-9.303 17.777,-18.21 28.978,-26.349c22.603,-16.285 48.994,-29.62 74.305,-40.765c22.013,-9.656 43.269,-17.476 62.453,-24.057l-2.326,-44.809Z" style="fill:rgb(244,142,0);fill-rule:nonzero;"/>
            </g>
            <g id="noun_Travel_62578.svg">
            </g>
        </g>
    </g>
</svg>
